<mxfile host="app.diagrams.net" modified="2023-03-14T07:53:07.623Z" agent="5.0 (Macintosh; Intel Mac OS X 10_15_7) AppleWebKit/537.36 (KHTML, like Gecko) Chrome/111.0.0.0 Safari/537.36" etag="iqC07gqCixsoMQrJlelo" version="20.8.3" type="github">
  <diagram id="NhNu8lK3jxxZx00MZokE" name="Page-1">
    <mxGraphModel dx="1122" dy="634" grid="1" gridSize="10" guides="1" tooltips="1" connect="1" arrows="1" fold="1" page="1" pageScale="1" pageWidth="850" pageHeight="1100" math="0" shadow="0">
      <root>
        <mxCell id="0" />
        <mxCell id="1" parent="0" />
        <mxCell id="UM3ME_d4aT2NmvtCluHd-1" value="AWS Cloud" style="points=[[0,0],[0.25,0],[0.5,0],[0.75,0],[1,0],[1,0.25],[1,0.5],[1,0.75],[1,1],[0.75,1],[0.5,1],[0.25,1],[0,1],[0,0.75],[0,0.5],[0,0.25]];outlineConnect=0;gradientColor=none;html=1;whiteSpace=wrap;fontSize=12;fontStyle=0;container=1;pointerEvents=0;collapsible=0;recursiveResize=0;shape=mxgraph.aws4.group;grIcon=mxgraph.aws4.group_aws_cloud_alt;strokeColor=#232F3E;fillColor=none;verticalAlign=top;align=left;spacingLeft=30;fontColor=#232F3E;dashed=0;" parent="1" vertex="1">
          <mxGeometry x="120" y="40" width="640" height="660" as="geometry" />
        </mxCell>
        <mxCell id="UM3ME_d4aT2NmvtCluHd-5" value="VPC - 10.1.0.0/16" style="points=[[0,0],[0.25,0],[0.5,0],[0.75,0],[1,0],[1,0.25],[1,0.5],[1,0.75],[1,1],[0.75,1],[0.5,1],[0.25,1],[0,1],[0,0.75],[0,0.5],[0,0.25]];outlineConnect=0;gradientColor=none;html=1;whiteSpace=wrap;fontSize=12;fontStyle=0;container=1;pointerEvents=0;collapsible=0;recursiveResize=0;shape=mxgraph.aws4.group;grIcon=mxgraph.aws4.group_vpc;strokeColor=#248814;fillColor=none;verticalAlign=top;align=left;spacingLeft=30;fontColor=#AAB7B8;dashed=0;" parent="UM3ME_d4aT2NmvtCluHd-1" vertex="1">
          <mxGeometry x="30" y="110" width="600" height="530" as="geometry" />
        </mxCell>
        <mxCell id="UM3ME_d4aT2NmvtCluHd-2" value="Region - N. Virginia" style="points=[[0,0],[0.25,0],[0.5,0],[0.75,0],[1,0],[1,0.25],[1,0.5],[1,0.75],[1,1],[0.75,1],[0.5,1],[0.25,1],[0,1],[0,0.75],[0,0.5],[0,0.25]];outlineConnect=0;gradientColor=none;html=1;whiteSpace=wrap;fontSize=12;fontStyle=0;container=1;pointerEvents=0;collapsible=0;recursiveResize=0;shape=mxgraph.aws4.group;grIcon=mxgraph.aws4.group_region;strokeColor=#147EBA;fillColor=none;verticalAlign=top;align=left;spacingLeft=30;fontColor=#147EBA;dashed=1;" parent="1" vertex="1">
          <mxGeometry x="160" y="80" width="560" height="570" as="geometry" />
        </mxCell>
        <mxCell id="UM3ME_d4aT2NmvtCluHd-4" value="Availability Zone b" style="fillColor=none;strokeColor=#147EBA;dashed=1;verticalAlign=top;fontStyle=0;fontColor=#147EBA;" parent="UM3ME_d4aT2NmvtCluHd-2" vertex="1">
          <mxGeometry x="290" y="40" width="240" height="500" as="geometry" />
        </mxCell>
        <mxCell id="UM3ME_d4aT2NmvtCluHd-3" value="Availability Zone a" style="fillColor=none;strokeColor=#147EBA;dashed=1;verticalAlign=top;fontStyle=0;fontColor=#147EBA;" parent="UM3ME_d4aT2NmvtCluHd-2" vertex="1">
          <mxGeometry x="30" y="40" width="240" height="500" as="geometry" />
        </mxCell>
        <mxCell id="UM3ME_d4aT2NmvtCluHd-6" value="Public subnet - 10.1.1.0/24" style="points=[[0,0],[0.25,0],[0.5,0],[0.75,0],[1,0],[1,0.25],[1,0.5],[1,0.75],[1,1],[0.75,1],[0.5,1],[0.25,1],[0,1],[0,0.75],[0,0.5],[0,0.25]];outlineConnect=0;gradientColor=none;html=1;whiteSpace=wrap;fontSize=12;fontStyle=0;container=1;pointerEvents=0;collapsible=0;recursiveResize=0;shape=mxgraph.aws4.group;grIcon=mxgraph.aws4.group_security_group;grStroke=0;strokeColor=#248814;fillColor=#E9F3E6;verticalAlign=top;align=left;spacingLeft=30;fontColor=#248814;dashed=0;" parent="UM3ME_d4aT2NmvtCluHd-2" vertex="1">
          <mxGeometry x="50" y="198" width="200" height="140" as="geometry" />
        </mxCell>
        <mxCell id="UM3ME_d4aT2NmvtCluHd-7" value="" style="sketch=0;points=[[0,0,0],[0.25,0,0],[0.5,0,0],[0.75,0,0],[1,0,0],[0,1,0],[0.25,1,0],[0.5,1,0],[0.75,1,0],[1,1,0],[0,0.25,0],[0,0.5,0],[0,0.75,0],[1,0.25,0],[1,0.5,0],[1,0.75,0]];outlineConnect=0;fontColor=#232F3E;gradientColor=#F78E04;gradientDirection=north;fillColor=#D05C17;strokeColor=#ffffff;dashed=0;verticalLabelPosition=bottom;verticalAlign=top;align=center;html=1;fontSize=12;fontStyle=0;aspect=fixed;shape=mxgraph.aws4.resourceIcon;resIcon=mxgraph.aws4.ec2;" parent="UM3ME_d4aT2NmvtCluHd-6" vertex="1">
          <mxGeometry x="61" y="41" width="78" height="78" as="geometry" />
        </mxCell>
        <mxCell id="UM3ME_d4aT2NmvtCluHd-8" value="Public subnet - 10.1.2.0/24" style="points=[[0,0],[0.25,0],[0.5,0],[0.75,0],[1,0],[1,0.25],[1,0.5],[1,0.75],[1,1],[0.75,1],[0.5,1],[0.25,1],[0,1],[0,0.75],[0,0.5],[0,0.25]];outlineConnect=0;gradientColor=none;html=1;whiteSpace=wrap;fontSize=12;fontStyle=0;container=1;pointerEvents=0;collapsible=0;recursiveResize=0;shape=mxgraph.aws4.group;grIcon=mxgraph.aws4.group_security_group;grStroke=0;strokeColor=#248814;fillColor=#E9F3E6;verticalAlign=top;align=left;spacingLeft=30;fontColor=#248814;dashed=0;" parent="UM3ME_d4aT2NmvtCluHd-2" vertex="1">
          <mxGeometry x="310" y="198" width="200" height="140" as="geometry" />
        </mxCell>
        <mxCell id="UM3ME_d4aT2NmvtCluHd-9" value="" style="sketch=0;points=[[0,0,0],[0.25,0,0],[0.5,0,0],[0.75,0,0],[1,0,0],[0,1,0],[0.25,1,0],[0.5,1,0],[0.75,1,0],[1,1,0],[0,0.25,0],[0,0.5,0],[0,0.75,0],[1,0.25,0],[1,0.5,0],[1,0.75,0]];outlineConnect=0;fontColor=#232F3E;gradientColor=#F78E04;gradientDirection=north;fillColor=#D05C17;strokeColor=#ffffff;dashed=0;verticalLabelPosition=bottom;verticalAlign=top;align=center;html=1;fontSize=12;fontStyle=0;aspect=fixed;shape=mxgraph.aws4.resourceIcon;resIcon=mxgraph.aws4.ec2;" parent="UM3ME_d4aT2NmvtCluHd-8" vertex="1">
          <mxGeometry x="61" y="41" width="78" height="78" as="geometry" />
        </mxCell>
        <mxCell id="UM3ME_d4aT2NmvtCluHd-10" value="" style="sketch=0;outlineConnect=0;fontColor=#232F3E;gradientColor=none;fillColor=#4D27AA;strokeColor=none;dashed=0;verticalLabelPosition=bottom;verticalAlign=top;align=center;html=1;fontSize=12;fontStyle=0;aspect=fixed;pointerEvents=1;shape=mxgraph.aws4.internet_gateway;" parent="UM3ME_d4aT2NmvtCluHd-2" vertex="1">
          <mxGeometry x="260" y="50" width="40" height="40" as="geometry" />
        </mxCell>
        <mxCell id="i0k4HqzFaQuYUkqu6tE5-1" value="Private subnet&amp;nbsp;&lt;span style=&quot;color: rgb(36, 136, 20);&quot;&gt;- 10.1.3.0/24&lt;/span&gt;" style="points=[[0,0],[0.25,0],[0.5,0],[0.75,0],[1,0],[1,0.25],[1,0.5],[1,0.75],[1,1],[0.75,1],[0.5,1],[0.25,1],[0,1],[0,0.75],[0,0.5],[0,0.25]];outlineConnect=0;gradientColor=none;html=1;whiteSpace=wrap;fontSize=12;fontStyle=0;container=1;pointerEvents=0;collapsible=0;recursiveResize=0;shape=mxgraph.aws4.group;grIcon=mxgraph.aws4.group_security_group;grStroke=0;strokeColor=#147EBA;fillColor=#E6F2F8;verticalAlign=top;align=left;spacingLeft=30;fontColor=#147EBA;dashed=0;" vertex="1" parent="UM3ME_d4aT2NmvtCluHd-2">
          <mxGeometry x="50" y="380" width="200" height="130" as="geometry" />
        </mxCell>
        <mxCell id="i0k4HqzFaQuYUkqu6tE5-2" value="" style="sketch=0;points=[[0,0,0],[0.25,0,0],[0.5,0,0],[0.75,0,0],[1,0,0],[0,1,0],[0.25,1,0],[0.5,1,0],[0.75,1,0],[1,1,0],[0,0.25,0],[0,0.5,0],[0,0.75,0],[1,0.25,0],[1,0.5,0],[1,0.75,0]];outlineConnect=0;fontColor=#232F3E;gradientColor=#4D72F3;gradientDirection=north;fillColor=#3334B9;strokeColor=#ffffff;dashed=0;verticalLabelPosition=bottom;verticalAlign=top;align=center;html=1;fontSize=12;fontStyle=0;aspect=fixed;shape=mxgraph.aws4.resourceIcon;resIcon=mxgraph.aws4.rds;" vertex="1" parent="i0k4HqzFaQuYUkqu6tE5-1">
          <mxGeometry x="61" y="26" width="78" height="78" as="geometry" />
        </mxCell>
        <mxCell id="i0k4HqzFaQuYUkqu6tE5-5" value="Private subnet&amp;nbsp;&lt;span style=&quot;color: rgb(36, 136, 20);&quot;&gt;- 10.1.4.0/24&lt;/span&gt;" style="points=[[0,0],[0.25,0],[0.5,0],[0.75,0],[1,0],[1,0.25],[1,0.5],[1,0.75],[1,1],[0.75,1],[0.5,1],[0.25,1],[0,1],[0,0.75],[0,0.5],[0,0.25]];outlineConnect=0;gradientColor=none;html=1;whiteSpace=wrap;fontSize=12;fontStyle=0;container=1;pointerEvents=0;collapsible=0;recursiveResize=0;shape=mxgraph.aws4.group;grIcon=mxgraph.aws4.group_security_group;grStroke=0;strokeColor=#147EBA;fillColor=#E6F2F8;verticalAlign=top;align=left;spacingLeft=30;fontColor=#147EBA;dashed=0;" vertex="1" parent="UM3ME_d4aT2NmvtCluHd-2">
          <mxGeometry x="310" y="380" width="200" height="130" as="geometry" />
        </mxCell>
        <mxCell id="i0k4HqzFaQuYUkqu6tE5-6" value="" style="sketch=0;points=[[0,0,0],[0.25,0,0],[0.5,0,0],[0.75,0,0],[1,0,0],[0,1,0],[0.25,1,0],[0.5,1,0],[0.75,1,0],[1,1,0],[0,0.25,0],[0,0.5,0],[0,0.75,0],[1,0.25,0],[1,0.5,0],[1,0.75,0]];outlineConnect=0;fontColor=#232F3E;gradientColor=#4D72F3;gradientDirection=north;fillColor=#3334B9;strokeColor=#ffffff;dashed=0;verticalLabelPosition=bottom;verticalAlign=top;align=center;html=1;fontSize=12;fontStyle=0;aspect=fixed;shape=mxgraph.aws4.resourceIcon;resIcon=mxgraph.aws4.rds;" vertex="1" parent="i0k4HqzFaQuYUkqu6tE5-5">
          <mxGeometry x="61" y="26" width="78" height="78" as="geometry" />
        </mxCell>
        <mxCell id="i0k4HqzFaQuYUkqu6tE5-7" value="" style="edgeStyle=orthogonalEdgeStyle;html=1;endArrow=none;elbow=vertical;startArrow=block;startFill=1;strokeColor=#545B64;rounded=0;entryX=0;entryY=0.25;entryDx=0;entryDy=0;entryPerimeter=0;exitX=1;exitY=0.25;exitDx=0;exitDy=0;exitPerimeter=0;" edge="1" parent="UM3ME_d4aT2NmvtCluHd-2" source="i0k4HqzFaQuYUkqu6tE5-2" target="i0k4HqzFaQuYUkqu6tE5-6">
          <mxGeometry width="100" relative="1" as="geometry">
            <mxPoint x="230" y="300" as="sourcePoint" />
            <mxPoint x="330" y="300" as="targetPoint" />
          </mxGeometry>
        </mxCell>
        <mxCell id="i0k4HqzFaQuYUkqu6tE5-8" value="" style="edgeStyle=orthogonalEdgeStyle;html=1;endArrow=none;elbow=vertical;startArrow=block;startFill=1;strokeColor=#545B64;rounded=0;entryX=1;entryY=0.75;entryDx=0;entryDy=0;entryPerimeter=0;exitX=0;exitY=0.75;exitDx=0;exitDy=0;exitPerimeter=0;" edge="1" parent="UM3ME_d4aT2NmvtCluHd-2" source="i0k4HqzFaQuYUkqu6tE5-6" target="i0k4HqzFaQuYUkqu6tE5-2">
          <mxGeometry width="100" relative="1" as="geometry">
            <mxPoint x="199" y="314.5" as="sourcePoint" />
            <mxPoint x="381" y="314.5" as="targetPoint" />
          </mxGeometry>
        </mxCell>
        <mxCell id="i0k4HqzFaQuYUkqu6tE5-9" style="edgeStyle=orthogonalEdgeStyle;rounded=0;orthogonalLoop=1;jettySize=auto;html=1;exitX=0.5;exitY=1;exitDx=0;exitDy=0;" edge="1" parent="UM3ME_d4aT2NmvtCluHd-2" source="UM3ME_d4aT2NmvtCluHd-3" target="UM3ME_d4aT2NmvtCluHd-3">
          <mxGeometry relative="1" as="geometry" />
        </mxCell>
        <mxCell id="i0k4HqzFaQuYUkqu6tE5-10" value="" style="edgeStyle=orthogonalEdgeStyle;html=1;endArrow=none;elbow=vertical;startArrow=block;startFill=1;strokeColor=#545B64;rounded=0;entryX=0.5;entryY=1;entryDx=0;entryDy=0;entryPerimeter=0;exitX=0.5;exitY=0;exitDx=0;exitDy=0;exitPerimeter=0;" edge="1" parent="UM3ME_d4aT2NmvtCluHd-2" source="i0k4HqzFaQuYUkqu6tE5-2" target="UM3ME_d4aT2NmvtCluHd-7">
          <mxGeometry width="100" relative="1" as="geometry">
            <mxPoint x="330" y="330" as="sourcePoint" />
            <mxPoint x="430" y="330" as="targetPoint" />
          </mxGeometry>
        </mxCell>
        <mxCell id="i0k4HqzFaQuYUkqu6tE5-14" value="" style="sketch=0;points=[[0,0,0],[0.25,0,0],[0.5,0,0],[0.75,0,0],[1,0,0],[0,1,0],[0.25,1,0],[0.5,1,0],[0.75,1,0],[1,1,0],[0,0.25,0],[0,0.5,0],[0,0.75,0],[1,0.25,0],[1,0.5,0],[1,0.75,0]];outlineConnect=0;fontColor=#232F3E;gradientColor=#945DF2;gradientDirection=north;fillColor=#5A30B5;strokeColor=#ffffff;dashed=0;verticalLabelPosition=bottom;verticalAlign=top;align=center;html=1;fontSize=12;fontStyle=0;aspect=fixed;shape=mxgraph.aws4.resourceIcon;resIcon=mxgraph.aws4.elastic_load_balancing;" vertex="1" parent="UM3ME_d4aT2NmvtCluHd-2">
          <mxGeometry x="262" y="100" width="38" height="38" as="geometry" />
        </mxCell>
        <mxCell id="i0k4HqzFaQuYUkqu6tE5-15" value="" style="edgeStyle=orthogonalEdgeStyle;html=1;endArrow=block;elbow=vertical;startArrow=none;endFill=1;strokeColor=#545B64;rounded=0;exitX=1;exitY=0.5;exitDx=0;exitDy=0;exitPerimeter=0;entryX=0.5;entryY=0;entryDx=0;entryDy=0;entryPerimeter=0;" edge="1" parent="UM3ME_d4aT2NmvtCluHd-2" source="i0k4HqzFaQuYUkqu6tE5-14" target="UM3ME_d4aT2NmvtCluHd-9">
          <mxGeometry width="100" relative="1" as="geometry">
            <mxPoint x="330" y="270" as="sourcePoint" />
            <mxPoint x="430" y="270" as="targetPoint" />
          </mxGeometry>
        </mxCell>
        <mxCell id="i0k4HqzFaQuYUkqu6tE5-16" value="" style="edgeStyle=orthogonalEdgeStyle;html=1;endArrow=none;elbow=vertical;startArrow=block;startFill=1;strokeColor=#545B64;rounded=0;entryX=0;entryY=0.5;entryDx=0;entryDy=0;entryPerimeter=0;exitX=0.5;exitY=0;exitDx=0;exitDy=0;exitPerimeter=0;" edge="1" parent="UM3ME_d4aT2NmvtCluHd-2" source="UM3ME_d4aT2NmvtCluHd-7" target="i0k4HqzFaQuYUkqu6tE5-14">
          <mxGeometry width="100" relative="1" as="geometry">
            <mxPoint x="330" y="270" as="sourcePoint" />
            <mxPoint x="430" y="270" as="targetPoint" />
          </mxGeometry>
        </mxCell>
        <mxCell id="i0k4HqzFaQuYUkqu6tE5-11" value="" style="edgeStyle=orthogonalEdgeStyle;html=1;endArrow=none;elbow=vertical;startArrow=block;startFill=1;strokeColor=#545B64;rounded=0;entryX=0.5;entryY=1;entryDx=0;entryDy=0;entryPerimeter=0;" edge="1" parent="1" target="UM3ME_d4aT2NmvtCluHd-9">
          <mxGeometry width="100" relative="1" as="geometry">
            <mxPoint x="570" y="490" as="sourcePoint" />
            <mxPoint x="320" y="369" as="targetPoint" />
          </mxGeometry>
        </mxCell>
        <mxCell id="i0k4HqzFaQuYUkqu6tE5-12" value="Auto Scaling group" style="points=[[0,0],[0.25,0],[0.5,0],[0.75,0],[1,0],[1,0.25],[1,0.5],[1,0.75],[1,1],[0.75,1],[0.5,1],[0.25,1],[0,1],[0,0.75],[0,0.5],[0,0.25]];outlineConnect=0;gradientColor=none;html=1;whiteSpace=wrap;fontSize=12;fontStyle=0;container=1;pointerEvents=0;collapsible=0;recursiveResize=0;shape=mxgraph.aws4.groupCenter;grIcon=mxgraph.aws4.group_auto_scaling_group;grStroke=1;strokeColor=#D86613;fillColor=none;verticalAlign=top;align=center;fontColor=#D86613;dashed=1;spacingTop=25;" vertex="1" parent="1">
          <mxGeometry x="174" y="230" width="530" height="210" as="geometry" />
        </mxCell>
        <mxCell id="i0k4HqzFaQuYUkqu6tE5-17" value="Text" style="text;html=1;strokeColor=none;fillColor=none;align=center;verticalAlign=middle;whiteSpace=wrap;rounded=0;" vertex="1" parent="1">
          <mxGeometry x="510" y="300" width="60" height="30" as="geometry" />
        </mxCell>
        <mxCell id="i0k4HqzFaQuYUkqu6tE5-18" value="&lt;div style=&quot;font-size: 16px;&quot;&gt;I create:&amp;nbsp;&lt;/div&gt;&lt;div style=&quot;font-size: 16px;&quot;&gt;+ Region: where all resources is included&amp;nbsp;&lt;/div&gt;&lt;div style=&quot;font-size: 16px;&quot;&gt;+ To available I create 2 available zone&lt;/div&gt;&lt;div style=&quot;font-size: 16px;&quot;&gt;+ I create VPC with range 10.1.0.0/16, with Internet Gateway.&amp;nbsp;&lt;/div&gt;&lt;div style=&quot;font-size: 16px;&quot;&gt;Then 2 public subnet 10.1.1.0/24 and 10.1.2.0/24 for EC2 instances.&amp;nbsp;&lt;/div&gt;&lt;div style=&quot;font-size: 16px;&quot;&gt;I create 2 private subnet 10.1.3.0/24 and 10.1.4.0/24 for RDS.&lt;/div&gt;&lt;div style=&quot;font-size: 16px;&quot;&gt;+ I create ELB and Auto Scaling Group for manage EC2 instances, handle huge quests.&lt;/div&gt;" style="text;html=1;align=left;verticalAlign=middle;resizable=0;points=[];autosize=1;strokeColor=none;fillColor=none;fontSize=16;" vertex="1" parent="1">
          <mxGeometry x="780" y="145" width="640" height="150" as="geometry" />
        </mxCell>
        <mxCell id="i0k4HqzFaQuYUkqu6tE5-20" value="Network flows: We user access our services by domain of ELB, &lt;br&gt;requests will pass internet gateway, access ELB. &lt;br&gt;Then ELB will transfers requests to EC2 instances. &lt;br&gt;EC2 instances handle request, can access RDS, &lt;br&gt;then returns response to ELB. &lt;br&gt;Then the response returns to user." style="text;html=1;align=left;verticalAlign=middle;resizable=0;points=[];autosize=1;strokeColor=none;fillColor=none;fontSize=16;" vertex="1" parent="1">
          <mxGeometry x="780" y="330" width="470" height="130" as="geometry" />
        </mxCell>
      </root>
    </mxGraphModel>
  </diagram>
</mxfile>
